<svg width="521" height="94" viewBox="0 0 521 94" fill="none" xmlns="http://www.w3.org/2000/svg">
<path d="M280.202 45.6531C283.661 38.4007 289.977 38.3116 293.63 45.6622C299.974 31.9854 314.37 47.8478 301.87 53.2788C297.211 53.6261 295.455 52.2016 293.664 48.1001C290.13 55.0724 283.986 55.4966 280.249 48.1323C276.849 55.5482 270.586 55.033 266.786 48.0369C264.052 55.3781 256.745 55.1756 253.63 48.1204C252.464 50.3608 251.319 52.191 248.807 53.0731C247.283 53.5964 245.612 53.4876 244.168 52.7711C242.524 51.9587 241.268 50.5277 240.677 48.7912C239.163 44.2852 242.145 41.4785 246.072 40.2397C250.374 40.2015 251.894 42.2421 253.664 45.8069C253.827 45.3136 254.017 44.831 254.236 44.3612C257.108 38.255 264.474 39.0227 266.789 45.9567C270.083 38.5807 276.992 38.0328 280.202 45.6531Z" fill="white"/>
<path d="M186.729 5.78402C189.884 -0.503763 196.924 -2.59405 199.478 5.08664L200.134 5.307C205.039 -0.968899 209.485 -2.71503 213.58 5.82122L213.685 5.5552C215.261 1.70063 218.406 -1.0883 222.754 0.955427C224.464 1.76316 225.772 3.23297 226.376 5.02631C227.777 9.16752 225.174 12.0462 221.504 13.3115C216.88 13.4522 215.518 12.4188 213.646 8.28318C209.312 14.7248 203.553 16.253 200.213 8.00843C196.817 15.2674 190.73 15.3443 186.79 8.24567C183.316 15.153 176.411 15.4562 173.547 7.96998C172.513 10.1006 171.582 11.8092 169.309 12.8567C167.804 13.5469 166.081 13.5932 164.541 12.9849C162.831 12.3066 161.465 10.968 160.753 9.27129C159.029 5.19947 161.377 2.08762 165.011 0.53998C169.929 0.130485 171.428 1.38243 173.453 5.71995C174.416 3.55807 175.329 1.93883 177.624 0.911964C179.216 0.181125 181.045 0.168631 182.646 0.878214C185.009 1.92508 185.848 3.53679 186.729 5.78402Z" fill="white"/>
<path d="M507.106 5.76649C508.634 2.32392 511.125 -0.457511 515.328 0.56185C517.028 0.987912 518.494 2.05791 519.419 3.54523C521.966 7.67456 519.638 11.144 515.953 13.1386C510.931 13.8673 509.372 12.3778 507.091 8.13187C503.781 15.4925 497.206 15.2308 493.731 7.86992C493.603 8.30598 493.463 8.76644 493.278 9.18093C492.478 10.9727 490.997 12.3715 489.163 13.0677C483.2 15.3408 481.147 8.79268 480.463 8.48384C479.078 9.81861 478.4 12.0358 476.716 12.8357C473.544 14.3406 469.428 12.8595 467.944 9.80362C467.194 8.25191 467.081 6.46669 467.631 4.83278C468.431 2.41207 469.794 1.57401 471.888 0.551833C477.247 0.101702 478.078 1.24517 480.419 5.58081C481.366 4.99001 481.397 3.07008 482.788 2.00852C487.556 -1.6313 492.156 0.948204 493.713 6.08471C494.825 3.67056 495.497 1.96537 498.184 0.825351C499.666 0.190165 501.338 0.176427 502.828 0.787231C505.319 1.80847 506.159 3.46175 507.106 5.76649Z" fill="white"/>
<path d="M507.128 45.6456C508.753 42.2284 511.522 39.1325 515.769 40.6029C517.506 41.2199 518.928 42.5009 519.722 44.1649C521.759 48.4349 519.209 51.7183 515.325 53.2954C510.625 53.7086 509.169 51.9631 507.172 48.1323C503.794 55.2913 497.5 55.316 493.759 48.0069C492.206 51.8202 489.172 54.7642 484.759 52.8899C483.037 52.1394 481.69 50.7312 481.015 48.9797C479.34 44.5456 482.294 41.7335 486.053 40.2553C492.253 40.0715 491.415 43.2962 493.684 45.3099C494.865 44.5756 494.978 42.3453 497.844 40.8636C499.231 40.1318 500.862 40.0165 502.337 40.5454C504.959 41.4744 506.084 43.2612 507.128 45.6456Z" fill="white"/>
<path d="M333.633 85.5219C337.32 78.3373 343.964 78.3236 346.989 85.8361C353.061 71.7147 367.752 87.8429 355.583 93.1219C350.633 93.7284 349.233 92.3764 347.017 88.1417C343.549 94.9944 336.974 95.4805 333.745 88.1011C332.477 90.3118 331.708 91.9222 329.17 92.9231C327.652 93.5111 325.961 93.4727 324.467 92.8162C322.827 92.101 321.533 90.7622 320.877 89.0945C319.083 84.5319 322.07 81.5714 326.064 80.2535C330.192 80.0853 331.936 82.1228 333.633 85.5219Z" fill="white"/>
<path d="M120.062 85.6341C121.731 82.1359 124.547 78.874 128.918 80.6583C130.632 81.371 131.997 82.7292 132.718 84.44C134.422 88.4981 132.255 91.8093 128.388 93.1657C123.573 93.6396 122.386 92.256 120.076 88.3743C116.456 94.8924 110.288 95.4623 106.798 88.1373L106.692 88.3246C104.731 91.7424 102.009 94.6961 97.5933 92.8318C95.8861 92.0997 94.553 90.7 93.9052 88.9585C92.2152 84.3875 95.2133 81.5463 99.1911 80.2497C104.751 80.2134 103.469 82.2228 106.789 85.1174C107.589 84.4725 108.255 83.0424 109.106 82.2297C113.834 77.7133 117.701 80.6858 120.062 85.6341Z" fill="white"/>
<path d="M480.497 85.84C483.919 77.1612 489.354 78.9186 493.8 85.4139C494.857 83.6519 495.719 81.9295 497.572 80.9729C499.175 80.133 501.063 80.0342 502.744 80.7026C508.897 83.0898 508.441 90.9368 502.004 93.219C495.838 93.6357 496.66 91.727 493.654 88.1591C492.791 89.8906 491.919 92.054 490.01 92.7483C486.035 94.1943 482.475 92.7211 480.891 88.8534L480.735 88.4648C479.716 88.558 478.188 92.3688 476.219 92.9218C467.188 95.4597 463.191 83.9266 472.604 80.2727C477.194 80.0874 478.794 81.9701 480.497 85.84Z" fill="white"/>
<path d="M346.992 5.83278C348.385 2.40584 350.857 -0.468442 355.032 0.537478C356.82 0.959789 358.36 2.09043 359.298 3.66996C361.729 7.72864 359.517 11.1668 355.848 13.1027C350.842 14.1018 349.248 12.1506 346.857 8.22035C343.917 15.3121 337.239 15.1662 333.635 8.20755C332.06 11.4813 329.423 14.2371 325.398 13.189C323.632 12.7151 322.132 11.5457 321.242 9.94743C318.92 5.81059 321.257 2.42022 325.042 0.577181C330.073 0.0626555 331.592 1.41149 333.698 5.7934C336.745 -1.62971 343.835 -1.57627 346.992 5.83278Z" fill="white"/>
<path d="M106.779 5.76449C107.784 3.60886 108.237 2.20157 110.624 1.0059C112.059 0.273502 113.729 0.149724 115.257 0.662061C117.959 1.56514 118.915 3.27063 120.084 5.58255C121.17 3.46693 121.854 1.91617 124.191 0.873057C129.562 -1.52233 135.115 4.43254 132.718 9.65313C131.776 11.705 130.122 12.5893 128.129 13.2914C123.324 13.4774 122.219 12.1867 120.001 8.18082C116.376 15.2226 110.563 15.3545 106.77 8.36274C105 11.5037 102.513 14.2538 98.4488 13.1717C96.6754 12.6943 95.1757 11.5096 94.301 9.89444C92.0273 5.77386 94.3485 2.40944 98.1263 0.562965C103.195 0.115959 104.549 1.33507 106.779 5.76449Z" fill="white"/>
<path d="M45.3581 60.2845C49.9218 60.0551 51.1971 61.7421 53.2921 65.341L53.4893 65.2316C55.1549 61.658 58.1243 59.1267 62.2753 60.7043C63.9212 61.3301 65.2409 62.5996 65.9299 64.22C67.7621 68.4747 65.4959 71.5597 61.6159 73.2633C56.6959 73.6253 55.7549 72.3559 53.4665 68.3794C51.3924 69.4244 52.5137 71.1861 49.8906 72.585C48.2568 73.4512 46.3378 73.6043 44.5874 73.0076C42.9028 72.4478 41.5137 71.2337 40.7334 69.6388C38.6078 65.2416 41.3787 61.9584 45.3581 60.2845Z" fill="white"/>
<path d="M5.77144 20.2414C11.3458 20.3861 9.92488 22.0766 13.2702 25.1209C14.9464 24.3357 13.5205 21.7828 19.9955 20.0879C27.9933 22.0472 29.0549 30.6644 21.2586 33.3096C14.0733 33.6672 15.1686 29.586 13.258 28.4047C12.2039 29.9248 11.0049 32.3796 9.07332 32.9285C0.201756 35.4508 -4.36418 23.7324 5.77144 20.2414Z" fill="white"/>
<path d="M386.938 25.9034C388.7 22.3683 391.238 18.8329 395.916 20.7015C397.625 21.4046 398.991 22.7525 399.716 24.4539C401.494 28.6464 398.96 31.977 395.016 33.3246C390.203 33.555 389.016 31.8964 386.888 27.9593C382.763 42.085 364.356 25.4351 379.519 20.2373C383.716 20.1467 385.653 22.2273 386.938 25.9034Z" fill="white"/>
<path d="M419.476 60.2447C425.461 60.0237 424.395 63.0399 427.161 65.3568C428.002 64.6497 428.055 63.5322 428.605 62.9086C436.57 53.8944 447.105 70.0607 434.542 73.3498C430.07 73.3726 429.042 71.774 427.13 68.1695C425.733 69.2427 426.061 71.6012 422.983 72.8672C421.339 73.5555 419.489 73.5495 417.851 72.8509C416.211 72.1598 414.926 70.8269 414.292 69.1626C412.636 64.7213 415.448 61.6495 419.476 60.2447Z" fill="white"/>
<path d="M432.638 40.3964C436.135 39.7919 439.475 42.086 440.166 45.5667C440.86 49.0477 438.65 52.4462 435.191 53.2267C432.872 53.7494 430.454 52.9732 428.872 51.1996C427.288 49.4259 426.794 46.9333 427.575 44.6889C428.36 42.4445 430.297 40.8012 432.638 40.3964Z" fill="white"/>
<path d="M192.33 40.4012C195.84 39.77 199.209 42.0673 199.903 45.5661C200.598 49.065 198.363 52.4753 194.878 53.2337C192.567 53.7366 190.165 52.9523 188.595 51.1828C187.026 49.4132 186.534 46.9337 187.308 44.6984C188.082 42.463 190.003 40.82 192.33 40.4012Z" fill="white"/>
<path d="M192.3 60.3965C195.81 59.7466 199.192 62.0332 199.898 65.5333C200.605 69.0334 198.374 72.4531 194.887 73.2165C192.58 73.721 190.181 72.9426 188.61 71.1799C187.038 69.4172 186.539 66.9437 187.304 64.7093C188.068 62.4749 189.978 60.8263 192.3 60.3965Z" fill="white"/>
<path d="M5.35287 80.3962C7.66319 79.9442 10.0382 80.7697 11.5707 82.5571C13.1032 84.3448 13.5566 86.8187 12.7576 89.0337C11.9588 91.249 10.031 92.8632 7.71037 93.2606C4.181 93.8648 0.822245 91.5169 0.176621 87.9937C-0.469004 84.4705 1.8385 81.0836 5.35287 80.3962Z" fill="white"/>
<path d="M5.38915 60.4085C8.90164 59.7426 12.2976 62.0227 13.0123 65.5268C13.727 69.031 11.4951 72.4595 8.00227 73.2228C5.69914 73.7264 3.30352 72.9509 1.73227 71.1925C0.161017 69.4345 -0.34242 66.9666 0.41508 64.7331C1.17227 62.5 3.07289 60.8476 5.38915 60.4085Z" fill="white"/>
<path d="M512.716 60.3949C516.288 59.7726 519.685 62.1783 520.285 65.7559C520.885 69.3335 518.46 72.716 514.878 73.2937C511.328 73.8667 507.985 71.4657 507.388 67.9193C506.794 64.373 509.175 61.0117 512.716 60.3949Z" fill="white"/>
<path d="M85.6712 40.3807C89.2409 39.8171 92.5906 42.2578 93.149 45.8295C93.7078 49.4012 91.2631 52.7484 87.6915 53.302C84.1272 53.8547 80.789 51.4152 80.2318 47.8504C79.6743 44.2859 82.1084 40.9434 85.6712 40.3807Z" fill="white"/>
<path d="M379.189 40.4084C382.701 39.7635 386.079 42.056 386.779 45.5577C387.479 49.0593 385.242 52.4754 381.751 53.2306C379.445 53.7301 377.048 52.9467 375.482 51.1818C373.914 49.4166 373.42 46.9434 374.189 44.7112C374.957 42.479 376.867 40.8345 379.189 40.4084Z" fill="white"/>
<path d="M138.972 40.3973C142.539 39.7871 145.924 42.1932 146.521 45.7642C147.118 49.3349 144.7 52.7112 141.128 53.2958C137.574 53.8772 134.22 51.474 133.626 47.9211C133.032 44.3685 135.422 41.0041 138.972 40.3973Z" fill="white"/>
<path d="M339.195 60.3977C342.692 59.7891 346.033 62.0785 346.729 65.5574C347.423 69.0362 345.22 72.435 341.758 73.2171C339.442 73.7404 337.026 72.967 335.445 71.1962C333.861 69.4254 333.364 66.9359 334.145 64.6927C334.923 62.4496 336.858 60.8054 339.195 60.3977Z" fill="white"/>
<path d="M432.895 20.3733C436.424 19.9035 439.68 22.3427 440.217 25.8612C440.758 29.3794 438.386 32.6838 434.88 33.2949C432.549 33.7016 430.18 32.8161 428.686 30.9793C427.195 29.1428 426.811 26.6424 427.683 24.4421C428.558 22.242 430.552 20.6856 432.895 20.3733Z" fill="white"/>
<path d="M192.472 20.3972C196.026 19.8364 199.364 22.2543 199.941 25.8069C200.518 29.3592 198.116 32.7102 194.568 33.3035C190.996 33.9008 187.619 31.4792 187.039 27.9035C186.458 24.328 188.894 20.9617 192.472 20.3972Z" fill="white"/>
<path d="M459.195 60.4246C462.689 59.7351 466.092 61.9701 466.849 65.4514C467.605 68.9324 465.436 72.3778 461.97 73.1996C459.67 73.7451 457.255 73.0052 455.652 71.2644C454.052 69.5239 453.517 67.0541 454.252 64.8063C454.986 62.5584 456.877 60.8829 459.195 60.4246Z" fill="white"/>
<path d="M406.03 40.3904C409.605 39.8296 412.955 42.2822 413.502 45.8608C414.049 49.4393 411.583 52.7809 408.005 53.3145C404.442 53.845 401.124 51.3958 400.58 47.8366C400.036 44.2775 402.474 40.9481 406.03 40.3904Z" fill="white"/>
<path d="M299.303 20.3914C302.832 19.866 306.128 22.2679 306.713 25.788C307.294 29.3081 304.947 32.6453 301.438 33.2865C299.116 33.7107 296.747 32.8498 295.238 31.0336C293.732 29.2178 293.319 26.7295 294.16 24.5242C295.003 22.3186 296.969 20.739 299.303 20.3914Z" fill="white"/>
<path d="M339.248 40.3989C342.736 39.819 346.055 42.1216 346.733 45.5938C347.411 49.0661 345.201 52.4477 341.751 53.2236C339.433 53.7453 337.011 52.9644 335.433 51.1852C333.855 49.4059 333.367 46.9089 334.158 44.6661C334.951 42.4232 336.901 40.789 339.248 40.3989Z" fill="white"/>
<path d="M85.5953 60.3849C89.17 59.7791 92.5544 62.2007 93.1356 65.7805C93.7169 69.3603 91.2731 72.7291 87.6903 73.2861C84.1422 73.8379 80.8137 71.4219 80.2378 67.8764C79.6622 64.3307 82.0547 60.9851 85.5953 60.3849Z" fill="white"/>
<path d="M245.792 60.3872C249.276 59.808 252.591 62.103 253.273 65.5694C253.957 69.0354 251.763 72.4173 248.32 73.205C245.999 73.7358 243.573 72.9615 241.988 71.1845C240.403 69.4071 239.91 66.9079 240.702 64.6619C241.493 62.4156 243.443 60.778 245.792 60.3872Z" fill="white"/>
<path d="M5.62171 40.3845C9.16983 39.8421 12.4908 42.2644 13.0595 45.8095C13.628 49.3546 11.2311 52.6943 7.69139 53.2895C4.11452 53.8909 0.732336 51.4624 0.157649 47.8801C-0.416726 44.2975 2.03608 40.9325 5.62171 40.3845Z" fill="white"/>
<path d="M32.2548 40.3971C35.7744 39.825 39.1029 42.1816 39.7329 45.6924C40.3632 49.2031 38.0629 52.5709 34.5641 53.2596C32.2485 53.7153 29.8673 52.8866 28.3348 51.0914C26.8023 49.2965 26.3566 46.8142 27.1688 44.5977C27.9813 42.3814 29.9254 40.7756 32.2548 40.3971Z" fill="white"/>
<path d="M459.207 40.4326C462.738 39.7434 466.163 42.0422 466.863 45.5738C467.567 49.1055 465.279 52.539 461.751 53.252C458.204 53.9688 454.754 51.6681 454.048 48.1196C453.345 44.571 455.657 41.1253 459.207 40.4326Z" fill="white"/>
<path d="M58.9981 20.3911C62.5338 19.8513 65.846 22.2554 66.4291 25.7852C67.0125 29.315 64.6497 32.6575 61.1284 33.2846C58.8116 33.6969 56.4522 32.831 54.9519 31.018C53.4513 29.205 53.0416 26.7245 53.8791 24.5252C54.7166 22.3254 56.6719 20.7462 58.9981 20.3911Z" fill="white"/>
<path d="M459.358 20.4088C462.876 19.804 466.229 22.1387 466.886 25.6504C467.539 29.1623 465.254 32.5492 461.754 33.2551C459.442 33.7205 457.061 32.9056 455.52 31.1226C453.979 29.3396 453.517 26.8648 454.314 24.6457C455.108 22.4269 457.036 20.8077 459.358 20.4088Z" fill="white"/>
<path d="M299.054 60.4132C302.548 59.7543 305.926 62.0078 306.657 65.4853C307.391 68.9629 305.213 72.3895 301.751 73.1979C299.448 73.7365 297.032 72.9853 295.435 71.2345C293.841 69.484 293.319 67.0073 294.069 64.7617C294.823 62.516 296.729 60.8524 299.054 60.4132Z" fill="white"/>
<path d="M85.8112 20.3834C89.3615 19.9013 92.6374 22.3705 93.1534 25.9172C93.6693 29.4638 91.2327 32.7642 87.6921 33.3146C84.103 33.8723 80.7484 31.3944 80.2252 27.7989C79.7021 24.2035 82.2118 20.8716 85.8112 20.3834Z" fill="white"/>
<path d="M192.217 80.4044C194.527 79.9439 196.907 80.7642 198.443 82.5503C199.98 84.3365 200.436 86.8122 199.637 89.0291C198.838 91.246 196.907 92.8605 194.585 93.2547C191.064 93.8521 187.716 91.5101 187.068 87.9969C186.421 84.484 188.714 81.1021 192.217 80.4044Z" fill="white"/>
<path d="M58.8398 80.3844C62.3885 79.7527 65.7779 82.1152 66.4139 85.6641C67.0501 89.2129 64.6923 92.6065 61.1454 93.2473C57.592 93.889 54.192 91.5255 53.5548 87.9704C52.9176 84.415 55.2848 81.0171 58.8398 80.3844Z" fill="white"/>
<path d="M432.407 80.4055C434.713 79.9185 437.104 80.7141 438.66 82.4864C440.216 84.2588 440.697 86.733 439.919 88.9596C439.138 91.1859 437.219 92.8185 434.897 93.2315C431.385 93.8554 428.022 91.5466 427.341 88.0443C426.663 84.542 428.916 81.1417 432.407 80.4055Z" fill="white"/>
<path d="M339.441 20.3802C342.966 19.9023 346.226 22.3358 346.772 25.8534C347.316 29.371 344.947 32.6773 341.441 33.2896C339.113 33.696 336.747 32.8129 335.254 30.9805C333.763 29.1481 333.375 26.6521 334.244 24.4539C335.11 22.2555 337.097 20.6975 339.441 20.3802Z" fill="white"/>
<path d="M246.001 20.3758C249.523 19.9044 252.776 22.337 253.32 25.8496C253.863 29.3625 251.501 32.6659 248.002 33.2839C245.672 33.6953 243.302 32.8141 241.807 30.9808C240.311 29.1471 239.924 26.6479 240.794 24.4476C241.664 22.247 243.656 20.6893 246.001 20.3758Z" fill="white"/>
<path d="M138.951 60.3973C142.516 59.7777 145.905 62.1763 146.508 65.7454C147.111 69.3146 144.697 72.6937 141.126 73.2798C137.579 73.8618 134.228 71.4671 133.629 67.9214C133.031 64.376 135.409 61.0128 138.951 60.3973Z" fill="white"/>
<path d="M245.674 80.3878C249.227 79.7295 252.639 82.0823 253.289 85.6384C253.936 89.1941 251.576 92.601 248.019 93.2406C244.476 93.8777 241.085 91.5263 240.439 87.9837C239.793 84.4411 242.135 81.0436 245.674 80.3878Z" fill="white"/>
<path d="M379.167 60.4135C382.676 59.7562 386.061 62.039 386.77 65.5391C387.476 69.0392 385.242 72.4593 381.755 73.2173C379.455 73.7177 377.061 72.9391 375.492 71.1804C373.926 69.4215 373.426 66.9545 374.189 64.7248C374.948 62.4948 376.851 60.8474 379.167 60.4135Z" fill="white"/>
<path d="M139.148 20.3909C142.692 19.8836 145.983 22.3255 146.527 25.8653C147.07 29.4054 144.662 32.7223 141.129 33.3019C138.811 33.682 136.468 32.7877 134.993 30.9596C133.517 29.1319 133.136 26.6524 133.996 24.4662C134.856 22.2796 136.823 20.7235 139.148 20.3909Z" fill="white"/>
<path d="M58.9457 40.3991C62.4263 39.8361 65.7251 42.1387 66.3979 45.6006C67.0704 49.0629 64.8735 52.4336 61.4357 53.2154C59.1129 53.7433 56.6872 52.9643 55.1057 51.1829C53.5244 49.4011 53.0385 46.8994 53.8376 44.655C54.6369 42.4106 56.5944 40.7795 58.9457 40.3991Z" fill="white"/>
<path d="M299.047 80.4032C302.597 79.7252 306.022 82.0606 306.687 85.6132C307.353 89.1661 305.009 92.5846 301.456 93.2404C297.916 93.8934 294.519 91.5599 293.853 88.023C293.191 84.486 295.512 81.0781 299.047 80.4032Z" fill="white"/>
<path d="M4.67433 0.641932C6.92714 -0.0570223 9.38183 0.513755 11.0953 2.13548C12.8087 3.75689 13.5143 6.17699 12.9415 8.46578C12.3684 10.7546 10.6056 12.5563 8.33027 13.1787C4.89402 14.1187 1.3387 12.1294 0.340887 8.70835C-0.656613 5.28704 1.27151 1.69787 4.67433 0.641932Z" fill="white"/>
<path d="M379.094 80.4036C381.404 79.9466 383.779 80.7684 385.313 82.554C386.847 84.3395 387.3 86.8124 386.5 89.0268C385.704 91.2409 383.772 92.8535 381.454 93.2474C377.932 93.8448 374.585 91.5022 373.941 87.9893C373.294 84.4764 375.591 81.097 379.094 80.4036Z" fill="white"/>
<path d="M58.1742 0.611769C61.6423 -0.390711 65.2651 1.61425 66.2586 5.08589C67.252 8.55753 65.2386 12.1764 61.7654 13.1614C58.3045 14.1429 54.7026 12.1376 53.7126 8.67819C52.7226 5.21874 54.7182 1.61081 58.1742 0.611769Z" fill="white"/>
<path d="M378.516 0.636185C381.985 -0.389428 385.629 1.60835 386.629 5.08718C387.632 8.56601 385.607 12.1949 382.123 13.172C378.673 14.1395 375.088 12.1405 374.098 8.69604C373.107 5.25128 375.079 1.65211 378.516 0.636185Z" fill="white"/>
<path d="M245.064 0.61756C248.529 -0.378357 252.145 1.62847 253.134 5.09698C254.125 8.5655 252.111 12.1784 248.641 13.1619C245.181 14.1425 241.58 12.1353 240.594 8.67585C239.607 5.2164 241.607 1.61098 245.064 0.61756Z" fill="white"/>
<path d="M431.951 0.621238C435.42 -0.372803 439.035 1.63872 440.02 5.11005C441.004 8.58106 438.982 12.1924 435.51 13.168C432.051 14.1402 428.457 12.1284 427.476 8.67016C426.495 5.21165 428.498 1.61153 431.951 0.621238Z" fill="white"/>
<path d="M298.386 0.643506C301.845 -0.399925 305.495 1.57191 306.52 5.03887C307.542 8.50613 305.551 12.1447 302.079 13.15C298.636 14.1475 295.032 12.1744 294.017 8.73433C293.001 5.29426 294.951 1.67912 298.386 0.643506Z" fill="white"/>
</svg>
